# xmcd
#
# Track frame offsets:
#	225
#	2840
#	7180
#	12132
#	16648
#	24849
#	27041
#	30488
#	35357
#	42753
#	44904
#	50525
#	53649
#	56038
#	62834
#	64993
#	67316
#	71779
#	77400
#	82893
#	86874
#	91123
#	94500
#	99259
#	103702
#	114119
#	119660
#	124229
#	128413
#	134969
#	138289
#	144707
#	150709
#	156305
#
# Disc length: 2145 seconds
#
# Revision: 0
# Processed by: cddbd v1.5PL3 Copyright (c) Steve Scherf et al.
# Submitted via: audiograbber 1.82.02
#
DISCID=c9085e22
DTITLE=Party-Time - Party-Time-CD6
DYEAR=1900
DGENRE=
TTITLE0=MIX 1    8´30 - Haste mal ´nen 50er
TTITLE1=MIX 1    8´30 - Itsy Bitsy Teenie Weenie
TTITLE2=MIX 1    8´30 - Ein Schiff wird kommen
TTITLE3=MIX 1    8´30 - Du bist die Rose vom Wörthersee
TTITLE4=MIX 1    8´30 - Anneliese
TTITLE5=MIX 1    8´30 - River-Kwai-Marsch
TTITLE6=MIX 1    8´30 - Tiritomba
TTITLE7=MIX 1    8´30 - Cindy, oh Cindy
TTITLE8=MIX 1    8´30 - Rote Rosen, rote Lippen, roter Wein
TTITLE9=MIX 2    9´01 - Hast du noch ´nen 50er
TTITLE10=MIX 2    9´01 - Marina
TTITLE11=MIX 2    9´01 - Hab ´n Sie nicht ´ne Braut für mich
TTITLE12=MIX 2    9´01 - Sulaika
TTITLE13=MIX 2    9´01 - Spiel´ noch einmal für mich, Habanero
TTITLE14=MIX 2    9´01 - Egon
TTITLE15=MIX 2    9´01 - Das machen nur die Beine von Dolores
TTITLE16=MIX 2    9´01 - Arrivederci Roma
TTITLE17=MIX 2    9´01 - Lago Maggiore
TTITLE18=MIX 2    9´01 - Ciao, ciao, Bambina
TTITLE19=MIX 3    11´35 - Wenn die Sonne scheint in Texas
TTITLE20=MIX 3    11´35 - Cowboy Ballade
TTITLE21=MIX 3    11´35 - Tom Dooley
TTITLE22=MIX 3    11´35 - Kriminaltango
TTITLE23=MIX 3    11´35 - Kalkutta liegt am Ganges
TTITLE24=MIX 3    11´35 - Hast de noch ´nen 50er
TTITLE25=MIX 3    11´35 - Sugar Baby
TTITLE26=MIX 3    11´35 - Alle Mädchen wollen küssen
TTITLE27=MIX 3    11´35 - Wenn
TTITLE28=MIX 3    11´35 - Fredy´s Boogie
TTITLE29=MIX 4    5´47 - Laß uns noch ein wenig träumen
TTITLE30=MIX 4    5´47 - Moonlight
TTITLE31=MIX 4    5´47 - Sail Along Silv´ry Moon
TTITLE32=MIX 4    5´47 - Morgen
TTITLE33=MIX 4    5´47 - Wir wollen niemals auseinandergeh´n
EXTD=
EXTT0=
EXTT1=
EXTT2=
EXTT3=
EXTT4=
EXTT5=
EXTT6=
EXTT7=
EXTT8=
EXTT9=
EXTT10=
EXTT11=
EXTT12=
EXTT13=
EXTT14=
EXTT15=
EXTT16=
EXTT17=
EXTT18=
EXTT19=
EXTT20=
EXTT21=
EXTT22=
EXTT23=
EXTT24=
EXTT25=
EXTT26=
EXTT27=
EXTT28=
EXTT29=
EXTT30=
EXTT31=
EXTT32=
EXTT33=
PLAYORDER=
